<?xml version="1.0" standalone="no"?>
<!DOCTYPE svg PUBLIC "-//W3C//DTD SVG 20010904//EN"
 "http://www.w3.org/TR/2001/REC-SVG-20010904/DTD/svg10.dtd">
<svg version="1.0" xmlns="http://www.w3.org/2000/svg"
 width="1024.000000pt" height="1024.000000pt" viewBox="0 0 1024.000000 1024.000000"
 preserveAspectRatio="xMidYMid meet">

<g transform="translate(0.000000,1024.000000) scale(0.100000,-0.100000)"
fill="#000000" stroke="none">
<path d="M5795 8908 c-43 -92 -26 -209 43 -288 19 -23 33 -42 31 -44 -2 -1
-24 -11 -49 -20 -155 -59 -381 -242 -548 -441 -237 -283 -370 -600 -412 -985
-12 -101 -8 -412 6 -537 6 -51 7 -53 33 -47 58 13 151 67 211 123 35 33 66 58
68 56 9 -9 -21 -174 -45 -245 -14 -41 -51 -129 -83 -195 -140 -289 -321 -490
-551 -614 -105 -57 -191 -85 -401 -132 -191 -43 -287 -75 -406 -140 -162 -87
-319 -232 -421 -389 l-56 -87 -30 19 c-70 45 -236 119 -320 144 -224 65 -470
31 -663 -92 -137 -88 -318 -321 -414 -535 -91 -204 -128 -398 -148 -769 -6
-107 -17 -234 -25 -282 -49 -284 -162 -514 -338 -690 l-81 -81 91 6 c285 18
565 205 827 552 l38 50 -4 -128 c-2 -103 0 -126 10 -122 8 3 19 5 27 5 25 0
116 83 175 161 164 218 223 449 218 857 -2 167 1 242 11 282 58 235 265 409
485 410 l58 0 -6 -37 c-3 -21 -9 -101 -12 -178 -8 -170 9 -272 67 -420 60
-155 135 -277 270 -437 l31 -38 -42 -77 c-78 -146 -168 -257 -329 -408 -118
-111 -118 -116 42 -385 177 -298 284 -559 338 -828 31 -153 40 -172 86 -172
36 0 90 -26 102 -48 17 -31 13 -69 -13 -152 -13 -41 -26 -95 -28 -119 -3 -42
-1 -45 27 -54 17 -5 111 -10 210 -11 154 -1 187 2 229 18 l48 19 -4 41 c-6 45
-33 93 -192 334 -151 229 -231 396 -325 683 -63 191 -102 354 -108 454 l-5 90
138 79 c444 253 628 375 710 469 83 96 130 262 141 505 l6 138 151 22 c372 54
694 153 1006 308 329 164 537 334 740 607 23 31 40 44 50 40 39 -15 100 -20
150 -12 130 21 270 114 671 446 118 98 261 213 317 256 l102 78 93 -69 c50
-38 99 -78 108 -88 39 -45 89 -250 89 -369 0 -48 6 -91 14 -107 21 -39 -8 -81
-71 -103 -26 -9 -68 -24 -93 -34 l-45 -17 3 -60 c5 -86 62 -199 159 -312 l28
-34 66 89 c102 136 130 180 164 262 18 42 48 108 68 147 l36 71 -24 104 c-13
57 -40 221 -61 364 -36 259 -36 260 -67 285 -158 131 -333 232 -422 246 -41 6
-55 2 -138 -38 -51 -25 -215 -113 -365 -197 -151 -84 -275 -151 -276 -149 -2
2 -8 37 -15 78 -30 184 -93 313 -285 580 -232 323 -359 545 -439 767 -22 60
-73 350 -64 359 2 2 28 -6 58 -18 46 -19 74 -22 189 -22 88 0 172 6 240 18 76
13 130 17 193 13 80 -5 94 -9 140 -41 65 -44 119 -54 184 -32 72 24 115 58
147 115 36 67 44 140 22 216 -24 81 -60 115 -123 115 -90 0 -179 27 -305 91
-132 68 -193 119 -293 249 -65 84 -151 153 -250 201 -81 40 -189 69 -257 69
-21 0 -38 4 -38 10 0 5 -42 54 -93 108 -51 54 -103 115 -116 135 -12 20 -27
37 -32 37 -6 0 -21 -24 -34 -52z"/>
</g>
</svg>
