<?xml version="1.0" standalone="no"?>
<!DOCTYPE svg PUBLIC "-//W3C//DTD SVG 20010904//EN"
 "http://www.w3.org/TR/2001/REC-SVG-20010904/DTD/svg10.dtd">
<svg version="1.0" xmlns="http://www.w3.org/2000/svg"
 width="1024.000000pt" height="1024.000000pt" viewBox="0 0 1024.000000 1024.000000"
 preserveAspectRatio="xMidYMid meet">

<g transform="translate(0.000000,1024.000000) scale(0.100000,-0.100000)"
fill="#000000" stroke="none">
<path d="M4849 8549 c-435 -39 -935 -191 -1312 -400 -751 -416 -1303 -1083
-1567 -1895 -120 -369 -166 -703 -157 -1132 7 -323 39 -553 118 -836 219 -792
762 -1512 1474 -1956 778 -485 1714 -630 2618 -404 1034 258 1915 1035 2310
2039 342 872 305 1870 -103 2718 -502 1045 -1554 1760 -2747 1866 -139 13
-492 12 -634 0z m541 -419 c977 -69 1827 -576 2330 -1389 290 -469 447 -1070
426 -1634 -29 -809 -376 -1569 -955 -2094 -390 -353 -852 -593 -1363 -707
-859 -192 -1745 6 -2463 553 -128 98 -389 356 -495 491 -345 439 -544 910
-627 1485 -21 149 -24 571 -5 715 111 823 502 1508 1132 1984 582 439 1288
647 2020 596z"/>
<path d="M4945 7274 c-222 -32 -348 -65 -481 -128 -166 -79 -305 -188 -408
-319 -122 -156 -188 -295 -241 -502 -39 -156 -46 -197 -35 -215 6 -10 128 -25
435 -56 235 -23 434 -40 441 -37 8 3 18 21 23 42 6 20 17 65 26 100 62 246
251 381 530 381 207 0 364 -80 432 -219 24 -49 28 -68 28 -146 0 -202 -79
-311 -460 -634 -334 -283 -461 -426 -540 -608 -54 -125 -69 -207 -70 -378 l0
-150 444 -3 c245 -1 449 2 454 7 4 4 12 48 17 97 17 177 58 278 153 381 34 36
148 138 252 226 229 193 441 404 513 510 65 95 134 238 158 332 15 55 19 107
19 245 0 200 -14 269 -85 417 -163 337 -501 550 -1010 639 -91 15 -520 29
-595 18z"/>
<path d="M5019 4119 c-336 -49 -523 -413 -374 -727 119 -251 444 -356 689
-224 74 40 168 132 205 201 49 93 64 154 64 261 -1 102 -19 173 -68 256 -32
54 -116 138 -170 169 -94 55 -234 81 -346 64z"/>
</g>
</svg>
