<?xml version="1.0" encoding="UTF-8"?>
<svg xmlns="http://www.w3.org/2000/svg" width="1024" height="1024" viewBox="0 0 1024 1024" role="img" aria-label="Slot 777 icon">
<path d="M 327 235 L 325 237 L 321 239 L 313 247 L 313 248 L 311 250 L 311 251 L 308 255 L 308 257 L 306 260 L 305 267 L 304 268 L 304 345 L 303 346 L 231 346 L 230 347 L 227 347 L 226 348 L 224 348 L 220 350 L 213 357 L 210 363 L 210 365 L 209 366 L 209 675 L 210 676 L 210 678 L 213 684 L 220 691 L 221 691 L 225 694 L 228 694 L 229 695 L 303 695 L 304 696 L 304 768 L 305 769 L 305 773 L 306 774 L 307 779 L 309 783 L 313 788 L 313 789 L 321 797 L 322 797 L 327 801 L 331 803 L 336 804 L 337 805 L 341 805 L 342 806 L 682 806 L 683 805 L 690 804 L 698 800 L 700 798 L 701 798 L 706 793 L 707 793 L 707 792 L 711 788 L 711 787 L 713 785 L 713 784 L 716 780 L 716 778 L 718 774 L 718 771 L 719 770 L 719 744 L 720 743 L 720 736 L 719 735 L 719 733 L 720 732 L 720 696 L 721 695 L 795 695 L 796 694 L 798 694 L 804 691 L 811 684 L 814 678 L 814 676 L 815 675 L 815 366 L 814 365 L 814 363 L 811 357 L 805 351 L 804 351 L 802 349 L 800 348 L 798 348 L 797 347 L 794 347 L 793 346 L 721 346 L 720 345 L 720 271 L 719 270 L 719 264 L 718 263 L 717 258 L 713 250 L 710 247 L 710 246 L 703 239 L 702 239 L 697 235 L 695 234 L 693 234 L 687 231 L 682 231 L 681 230 L 343 230 L 342 231 L 337 231 L 336 232 L 334 232 L 333 233 L 331 233 Z M 617 391 L 769 391 L 770 392 L 770 649 L 769 650 L 617 650 L 616 649 L 616 392 Z M 435 391 L 588 391 L 589 392 L 589 649 L 588 650 L 435 650 L 434 649 L 434 392 Z M 256 391 L 407 391 L 408 392 L 408 649 L 407 650 L 256 650 L 255 649 L 255 392 Z" fill="#000000" fill-rule="evenodd"/>
<path d="M 279 452 L 278 453 L 278 502 L 279 503 L 310 503 L 310 488 L 311 487 L 336 487 L 337 488 L 334 496 L 327 507 L 317 527 L 310 544 L 301 574 L 299 589 L 300 590 L 348 590 L 349 589 L 351 568 L 358 540 L 370 507 L 384 477 L 384 452 Z" fill="#000000"/>
<path d="M 459 452 L 458 453 L 458 502 L 459 503 L 491 503 L 491 488 L 492 487 L 518 487 L 519 488 L 519 490 L 508 508 L 489 548 L 482 571 L 479 590 L 529 590 L 533 564 L 539 541 L 552 506 L 566 477 L 566 452 Z" fill="#000000"/>
<path d="M 640 452 L 639 453 L 639 474 L 640 475 L 639 502 L 640 503 L 671 503 L 672 502 L 672 496 L 671 495 L 671 488 L 672 487 L 698 487 L 699 488 L 699 491 L 688 509 L 678 529 L 669 551 L 661 582 L 661 590 L 710 590 L 712 574 L 720 540 L 730 512 L 746 478 L 746 452 Z" fill="#000000"/>
</svg>
