<?xml version="1.0" standalone="no"?>
<!DOCTYPE svg PUBLIC "-//W3C//DTD SVG 20010904//EN"
 "http://www.w3.org/TR/2001/REC-SVG-20010904/DTD/svg10.dtd">
<svg version="1.0" xmlns="http://www.w3.org/2000/svg"
 width="1024.000000pt" height="1536.000000pt" viewBox="0 0 1024.000000 1536.000000"
 preserveAspectRatio="xMidYMid meet">

<g transform="translate(0.000000,1536.000000) scale(0.100000,-0.100000)"
fill="#000000" stroke="none">
<path d="M1830 13430 c-216 -26 -439 -162 -563 -344 -46 -67 -97 -183 -118
-266 -12 -47 -14 -817 -14 -5155 0 -4856 1 -5103 18 -5170 10 -38 39 -115 66
-170 101 -207 286 -354 524 -418 l82 -22 3300 0 c3190 0 3302 1 3370 19 277
74 482 265 577 537 l33 94 0 5130 0 5130 -33 96 c-86 257 -288 444 -562 523
l-75 21 -3270 1 c-1798 1 -3299 -2 -3335 -6z m6637 -361 c135 -50 244 -160
283 -285 l20 -66 0 -5057 0 -5056 -24 -67 c-55 -156 -189 -271 -347 -298 -45
-8 -1007 -10 -3319 -8 l-3255 3 -56 23 c-118 48 -223 152 -271 270 l-23 57 0
5085 0 5085 33 69 c18 39 48 89 67 112 42 51 128 109 198 134 50 18 162 19
3344 19 l3292 1 58 -21z"/>
<path d="M4984 9748 c-311 -490 -539 -813 -909 -1283 -324 -412 -467 -659
-536 -922 -26 -100 -28 -252 -4 -342 55 -211 209 -385 431 -487 104 -49 220
-74 337 -74 176 0 326 44 576 168 85 42 158 78 161 80 4 1 -1 -50 -11 -115
-56 -370 -137 -632 -289 -941 l-86 -174 30 7 c153 31 245 39 461 39 175 0 251
-4 320 -17 50 -9 96 -17 103 -17 7 0 -12 48 -47 119 -149 296 -241 582 -300
931 -16 91 -27 166 -26 168 1 1 76 -33 166 -77 266 -129 409 -171 579 -171
247 0 498 120 637 305 200 265 191 570 -28 966 -95 172 -195 315 -443 634
-383 490 -561 743 -861 1218 -65 103 -121 187 -125 187 -4 0 -66 -91 -136
-202z"/>
</g>
</svg>
